<?xml version="1.0" encoding="utf-8"?>
<!-- Generator: Adobe Illustrator 24.0.1, SVG Export Plug-In . SVG Version: 6.00 Build 0)  -->
<svg version="1.1" id="Capa_1" xmlns="http://www.w3.org/2000/svg" xmlns:xlink="http://www.w3.org/1999/xlink" x="0px" y="0px"
	 viewBox="0 0 445.2 157.9" style="enable-background:new 0 0 445.2 157.9;" xml:space="preserve">
<style type="text/css">
	.st0{fill:#005CA9;}
	.st1{fill:#009FE3;}
	.st2{fill:#006935;}
	.st3{fill:#C8D41F;}
	.st4{fill:#C7D320;}
	.st5{fill:#009B3E;}
	.st6{enable-background:new    ;}
	.st7{fill:#FFFFFF;}
</style>
<g>
	<g>
		<path class="st0" d="M385.7,38.4l-6.2-7.2c-0.8-1.1-2.2-1.2-3.3-0.2c0,0-13.9,10.7-24.1,25.7c-1.8,2.7-6.3,10.2-6.9,11.8
			c-0.4,1.2-0.4,6.9-0.2,7.7c0.1,0.6,0.2,1.2,0.9,1.5h0.1c0,0,0,0,0.1,0h0.1h0.1c0,0,0,0,0.1,0h0.1c0,0,0,0,0.1,0h0.1c0,0,0,0,0.1,0
			h0.1l0,0c0,0,0.1,0,0.2,0l0,0c0.1,0,0.1,0,0.2,0l0,0c0.4-0.1,0.8-0.2,1.1-0.4l0,0l0,0c0.2-0.2,3.3-4.7,9.3-11.4
			c10.5-11.6,28-24.1,28-24.1C386.3,41,386.5,39.6,385.7,38.4"/>
		<path class="st1" d="M403.4,61.4c-0.2-0.2-5.6-7.2-5.6-7.2c-0.2-0.2-0.3-0.4-0.5-0.6c-0.7-0.7-1.9-0.9-3.1-0.7
			c0,0-20.3,5.3-33.5,9.4c-1.2,1.2-2.4,2.4-3.5,3.7c-6,6.6-9.1,11.2-9.3,11.4l0,0l0,0c-0.2,0.2-0.7,0.3-1,0.4c0.1,0,0.2,0,0.2,0
			c0.7-0.2,28-7.2,28-7.2l0,0l26-5.5C405,64.4,403.8,62.3,403.4,61.4z"/>
		<path class="st2" d="M405.7,77.6c0,0-2.3,4.2-3.2,5.8c-7.7,13.4-25.5,27.3-25.5,27.3c-0.8,1-0.8,2.6,0.2,3.4l7.7,6.2
			c1.2,0.9,2.5,0.6,3.3-0.1c3-2.7,15.5-19.8,17.9-30.9l0.7-8.8l0.2-2.3C407.3,76.9,406.4,76.6,405.7,77.6"/>
		<g>
			<path class="st3" d="M351.1,91.1l27.3-6.9c9.7-7.8,21.1-17,24.4-19.6c-0.4,0.2-0.9,0.4-1.7,0.6l-26,5.5l0,0c0,0-0.2,0-0.4,0.1
				l-23.8,19.8c-0.4,0.2-0.6,0.6-0.7,1C350.4,91.3,350.7,91.2,351.1,91.1z"/>
			<path class="st4" d="M350.8,93c-0.1-0.1-0.2-0.1-0.2-0.2C350.6,92.9,350.6,92.9,350.8,93c-0.1,0,0.2,0.2,0.8,0.6L350.8,93z"/>
		</g>
		<g>
			<path class="st5" d="M402.6,83.4c0.9-1.5,3.2-5.8,3.2-5.8c0.2-0.2,0.3-0.4,0.5-0.5h-0.1l-55.1,14c-1.3,0.4-1.4,1.2-0.2,1.9
				l8.8,5.8c1.6,0.9,2.4,1.2,4.7,0.7l31-6.2C398.1,90.2,400.7,86.7,402.6,83.4z"/>
			<path class="st5" d="M405.9,90.7c0.1-0.2,0.1-0.3,0.2-0.5C406,90.3,405.9,90.6,405.9,90.7z"/>
		</g>
	</g>
	<g class="st6">
		<path class="st7" d="M56.1,131.1v-14.9h4.3c1.5,0,2.8,0.3,3.6,1s1.3,1.6,1.3,2.9c0,0.7-0.2,1.4-0.6,2c-0.4,0.6-1,1-1.7,1.2
			c0.9,0.1,1.7,0.5,2.3,1.2c0.6,0.7,0.9,1.5,0.9,2.5c0,1.3-0.4,2.4-1.3,3.1c-0.9,0.7-2,1.1-3.5,1.1H56.1z M57.3,122.8h3.6
			c1,0,1.8-0.3,2.4-0.7c0.6-0.5,0.8-1.2,0.8-2.1c0-0.9-0.3-1.6-0.9-2.1c-0.6-0.5-1.5-0.7-2.8-0.7h-3.1V122.8z M57.3,123.9v6.1h4.2
			c1.1,0,2-0.3,2.6-0.8c0.6-0.5,0.9-1.3,0.9-2.3c0-0.9-0.3-1.6-0.9-2.2c-0.6-0.6-1.4-0.9-2.5-0.9h-0.2H57.3z"/>
		<path class="st7" d="M75.7,131.1c-0.1-0.4-0.1-0.7-0.2-1c0-0.3-0.1-0.6-0.1-0.9c-0.4,0.6-0.9,1.1-1.6,1.5
			c-0.7,0.4-1.5,0.6-2.4,0.6c-1.1,0-1.9-0.3-2.5-0.9c-0.6-0.6-0.9-1.4-0.9-2.3s0.4-1.8,1.3-2.4c0.9-0.6,2-0.9,3.4-0.9h2.7v-1.4
			c0-0.8-0.3-1.4-0.8-1.9c-0.5-0.5-1.2-0.7-2.1-0.7c-0.8,0-1.5,0.2-2,0.6c-0.5,0.4-0.8,0.9-0.8,1.5h-1.1l0-0.1
			c0-0.8,0.3-1.6,1.1-2.2c0.8-0.6,1.7-0.9,2.9-0.9s2.2,0.3,2.9,0.9s1.1,1.5,1.1,2.7v5.4c0,0.4,0,0.8,0.1,1.1s0.1,0.7,0.2,1.1H75.7z
			 M71.6,130.2c0.9,0,1.8-0.2,2.4-0.7c0.7-0.4,1.2-1,1.4-1.7v-2.1h-2.7c-1,0-1.8,0.2-2.5,0.7c-0.6,0.5-1,1-1,1.7
			c0,0.6,0.2,1.1,0.6,1.5C70.3,130,70.9,130.2,71.6,130.2z"/>
		<path class="st7" d="M81,120l0.1,1.9c0.4-0.7,0.8-1.2,1.4-1.6c0.6-0.4,1.3-0.6,2.1-0.6c1.2,0,2.1,0.4,2.7,1.1
			c0.6,0.7,0.9,1.9,0.9,3.4v6.7h-1.2v-6.7c0-1.3-0.2-2.2-0.7-2.7c-0.5-0.5-1.1-0.8-2-0.8s-1.6,0.2-2.1,0.6c-0.5,0.4-0.9,1-1.2,1.7
			v7.8h-1.2V120H81z"/>
		<path class="st7" d="M95.7,130.2c0.8,0,1.5-0.2,2.1-0.7c0.6-0.5,0.9-1.1,0.9-1.9h1.1l0,0.1c0,1-0.4,1.9-1.2,2.6
			c-0.8,0.7-1.8,1-2.9,1c-1.5,0-2.6-0.5-3.4-1.6c-0.8-1-1.2-2.4-1.2-4v-0.4c0-1.6,0.4-2.9,1.2-4c0.8-1,2-1.6,3.4-1.6
			c1.2,0,2.2,0.4,3,1.1c0.8,0.7,1.2,1.7,1.1,2.8l0,0.1h-1.1c0-0.9-0.3-1.6-0.9-2.1s-1.3-0.8-2.1-0.8c-1.2,0-2,0.4-2.6,1.3
			c-0.6,0.9-0.8,1.9-0.8,3.2v0.4c0,1.3,0.3,2.4,0.8,3.2C93.6,129.8,94.5,130.2,95.7,130.2z"/>
		<path class="st7" d="M109.4,131.1c-0.1-0.4-0.1-0.7-0.2-1c0-0.3-0.1-0.6-0.1-0.9c-0.4,0.6-0.9,1.1-1.6,1.5
			c-0.7,0.4-1.5,0.6-2.4,0.6c-1.1,0-1.9-0.3-2.5-0.9c-0.6-0.6-0.9-1.4-0.9-2.3s0.4-1.8,1.3-2.4c0.9-0.6,2-0.9,3.4-0.9h2.7v-1.4
			c0-0.8-0.3-1.4-0.8-1.9c-0.5-0.5-1.2-0.7-2.1-0.7c-0.8,0-1.5,0.2-2,0.6c-0.5,0.4-0.8,0.9-0.8,1.5h-1.1l0-0.1
			c0-0.8,0.3-1.6,1.1-2.2c0.8-0.6,1.7-0.9,2.9-0.9s2.2,0.3,2.9,0.9s1.1,1.5,1.1,2.7v5.4c0,0.4,0,0.8,0.1,1.1s0.1,0.7,0.2,1.1H109.4z
			 M105.3,130.2c0.9,0,1.8-0.2,2.4-0.7c0.7-0.4,1.2-1,1.4-1.7v-2.1h-2.7c-1,0-1.8,0.2-2.5,0.7c-0.6,0.5-1,1-1,1.7
			c0,0.6,0.2,1.1,0.6,1.5C104,130,104.6,130.2,105.3,130.2z"/>
		<path class="st7" d="M118.3,125.6c0-1.8,0.4-3.2,1.1-4.2c0.7-1.1,1.8-1.6,3.1-1.6c0.8,0,1.4,0.2,2,0.5c0.6,0.3,1,0.8,1.4,1.4v-6.5
			h1.2v16h-1l-0.2-1.6c-0.4,0.6-0.9,1-1.4,1.3s-1.3,0.5-2,0.5c-1.3,0-2.4-0.5-3.1-1.5s-1.1-2.3-1.1-4V125.6z M119.5,125.8
			c0,1.3,0.3,2.4,0.8,3.2c0.5,0.8,1.3,1.2,2.4,1.2c0.8,0,1.4-0.2,2-0.5c0.5-0.4,0.9-0.8,1.2-1.5V123c-0.3-0.6-0.7-1.1-1.2-1.5
			s-1.2-0.6-2-0.6c-1.1,0-1.9,0.4-2.4,1.3s-0.8,2-0.8,3.4V125.8z"/>
		<path class="st7" d="M134.6,131.3c-1.4,0-2.6-0.5-3.5-1.5s-1.3-2.3-1.3-3.9v-0.6c0-1.6,0.5-2.9,1.4-3.9c0.9-1,2-1.6,3.4-1.6
			c1.3,0,2.4,0.4,3.1,1.3c0.7,0.9,1.1,2,1.1,3.5v1H131v0.3c0,1.3,0.3,2.3,1,3.1c0.6,0.8,1.5,1.2,2.6,1.2c0.7,0,1.3-0.1,1.9-0.3
			c0.6-0.2,1-0.5,1.4-0.9l0.5,0.8c-0.4,0.4-0.9,0.7-1.5,1C136.2,131.1,135.5,131.3,134.6,131.3z M134.5,120.8c-0.9,0-1.7,0.3-2.3,1
			c-0.6,0.7-1,1.5-1.1,2.6l0,0.1h6.3v-0.3c0-1-0.3-1.8-0.8-2.4C136.2,121.1,135.4,120.8,134.5,120.8z"/>
		<path class="st7" d="M146.5,131.1v-14.9h4.5c1.8,0,3.3,0.6,4.5,1.8c1.2,1.2,1.8,2.8,1.8,4.7v1.9c0,1.9-0.6,3.5-1.8,4.7
			c-1.2,1.2-2.7,1.8-4.5,1.8H146.5z M147.8,117.2V130h3.3c1.5,0,2.7-0.5,3.6-1.5s1.4-2.3,1.4-3.9v-1.9c0-1.6-0.5-2.8-1.4-3.9
			c-1-1-2.2-1.5-3.6-1.5H147.8z"/>
		<path class="st7" d="M164.6,131.3c-1.4,0-2.6-0.5-3.5-1.5s-1.3-2.3-1.3-3.9v-0.6c0-1.6,0.5-2.9,1.4-3.9c0.9-1,2-1.6,3.4-1.6
			c1.3,0,2.4,0.4,3.1,1.3c0.7,0.9,1.1,2,1.1,3.5v1H161v0.3c0,1.3,0.3,2.3,1,3.1c0.6,0.8,1.5,1.2,2.6,1.2c0.7,0,1.3-0.1,1.9-0.3
			c0.6-0.2,1-0.5,1.4-0.9l0.5,0.8c-0.4,0.4-0.9,0.7-1.5,1C166.2,131.1,165.4,131.3,164.6,131.3z M164.4,120.8c-0.9,0-1.7,0.3-2.3,1
			c-0.6,0.7-1,1.5-1.1,2.6l0,0.1h6.3v-0.3c0-1-0.3-1.8-0.8-2.4C166.1,121.1,165.4,120.8,164.4,120.8z"/>
		<path class="st7" d="M177.8,128.2c0-0.5-0.2-1-0.6-1.4c-0.4-0.4-1.2-0.7-2.3-0.9c-1.3-0.3-2.3-0.6-2.9-1.1c-0.6-0.5-1-1.1-1-2
			c0-0.8,0.4-1.6,1.1-2.1c0.7-0.6,1.7-0.9,2.8-0.9c1.2,0,2.2,0.3,3,0.9s1.1,1.4,1.1,2.3l0,0.1h-1.1c0-0.6-0.3-1.1-0.8-1.6
			s-1.2-0.7-2.1-0.7c-0.9,0-1.6,0.2-2,0.6c-0.4,0.4-0.7,0.8-0.7,1.4c0,0.5,0.2,0.9,0.6,1.3c0.4,0.3,1.2,0.6,2.3,0.9
			c1.3,0.3,2.3,0.7,2.9,1.2c0.7,0.5,1,1.2,1,2.1c0,0.9-0.4,1.7-1.1,2.2c-0.7,0.6-1.7,0.9-3,0.9c-1.3,0-2.4-0.3-3.2-1
			s-1.1-1.4-1.1-2.3l0-0.1h1.1c0,0.8,0.4,1.4,1,1.7c0.6,0.4,1.3,0.5,2.1,0.5c0.9,0,1.6-0.2,2.1-0.6S177.8,128.8,177.8,128.2z"/>
		<path class="st7" d="M188.8,131.1c-0.1-0.4-0.1-0.7-0.2-1c0-0.3-0.1-0.6-0.1-0.9c-0.4,0.6-0.9,1.1-1.6,1.5
			c-0.7,0.4-1.5,0.6-2.4,0.6c-1.1,0-1.9-0.3-2.5-0.9c-0.6-0.6-0.9-1.4-0.9-2.3s0.4-1.8,1.3-2.4c0.9-0.6,2-0.9,3.4-0.9h2.7v-1.4
			c0-0.8-0.3-1.4-0.8-1.9c-0.5-0.5-1.2-0.7-2.1-0.7c-0.8,0-1.5,0.2-2,0.6c-0.5,0.4-0.8,0.9-0.8,1.5h-1.1l0-0.1
			c0-0.8,0.3-1.6,1.1-2.2c0.8-0.6,1.7-0.9,2.9-0.9s2.2,0.3,2.9,0.9s1.1,1.5,1.1,2.7v5.4c0,0.4,0,0.8,0.1,1.1s0.1,0.7,0.2,1.1H188.8z
			 M184.7,130.2c0.9,0,1.8-0.2,2.4-0.7c0.7-0.4,1.2-1,1.4-1.7v-2.1h-2.7c-1,0-1.8,0.2-2.5,0.7c-0.6,0.5-1,1-1,1.7
			c0,0.6,0.2,1.1,0.6,1.5C183.4,130,184,130.2,184.7,130.2z"/>
		<path class="st7" d="M198.1,121l-0.9-0.1c-0.8,0-1.4,0.2-1.9,0.6c-0.5,0.4-0.8,1-1.1,1.8v7.6h-1.2V120h1.1l0.2,1.8v0.1
			c0.3-0.7,0.8-1.2,1.3-1.6c0.5-0.4,1.2-0.6,1.9-0.6c0.1,0,0.3,0,0.4,0c0.1,0,0.2,0,0.3,0.1L198.1,121z"/>
		<path class="st7" d="M205.3,121l-0.9-0.1c-0.8,0-1.4,0.2-1.9,0.6c-0.5,0.4-0.8,1-1.1,1.8v7.6h-1.2V120h1.1l0.2,1.8v0.1
			c0.3-0.7,0.8-1.2,1.3-1.6c0.5-0.4,1.2-0.6,1.9-0.6c0.1,0,0.3,0,0.4,0c0.1,0,0.2,0,0.3,0.1L205.3,121z"/>
		<path class="st7" d="M206.5,125.4c0-1.6,0.4-3,1.3-4s2.1-1.6,3.5-1.6c1.5,0,2.7,0.5,3.6,1.6s1.3,2.4,1.3,4v0.3c0,1.6-0.4,3-1.3,4
			c-0.9,1-2.1,1.6-3.5,1.6c-1.5,0-2.7-0.5-3.6-1.6c-0.9-1-1.3-2.4-1.3-4V125.4z M207.7,125.7c0,1.3,0.3,2.4,1,3.2
			c0.6,0.9,1.6,1.3,2.7,1.3c1.1,0,2-0.4,2.7-1.3c0.7-0.9,1-1.9,1-3.2v-0.3c0-1.3-0.3-2.3-1-3.2c-0.7-0.9-1.6-1.3-2.7-1.3
			c-1.1,0-2,0.4-2.7,1.3c-0.6,0.9-1,1.9-1,3.2V125.7z"/>
		<path class="st7" d="M220.2,131.1H219v-16h1.2V131.1z"/>
		<path class="st7" d="M224.9,131.1h-1.2v-16h1.2V131.1z"/>
		<path class="st7" d="M227.6,125.4c0-1.6,0.4-3,1.3-4s2.1-1.6,3.5-1.6c1.5,0,2.7,0.5,3.6,1.6c0.9,1,1.3,2.4,1.3,4v0.3
			c0,1.6-0.4,3-1.3,4c-0.9,1-2.1,1.6-3.5,1.6c-1.5,0-2.7-0.5-3.6-1.6c-0.9-1-1.3-2.4-1.3-4V125.4z M228.9,125.7c0,1.3,0.3,2.4,1,3.2
			c0.6,0.9,1.6,1.3,2.7,1.3c1.1,0,2-0.4,2.7-1.3c0.7-0.9,1-1.9,1-3.2v-0.3c0-1.3-0.3-2.3-1-3.2c-0.7-0.9-1.6-1.3-2.7-1.3
			c-1.1,0-2,0.4-2.7,1.3c-0.6,0.9-1,1.9-1,3.2V125.7z"/>
		<path class="st7" d="M255.5,117.2h-5.1v13.8h-1.2v-13.8h-5.2v-1h11.5V117.2z"/>
		<path class="st7" d="M260.8,131.3c-1.4,0-2.6-0.5-3.5-1.5s-1.3-2.3-1.3-3.9v-0.6c0-1.6,0.5-2.9,1.4-3.9c0.9-1,2-1.6,3.4-1.6
			c1.3,0,2.4,0.4,3.1,1.3c0.7,0.9,1.1,2,1.1,3.5v1h-7.7v0.3c0,1.3,0.3,2.3,1,3.1s1.5,1.2,2.6,1.2c0.7,0,1.3-0.1,1.9-0.3
			c0.6-0.2,1-0.5,1.4-0.9l0.5,0.8c-0.4,0.4-0.9,0.7-1.5,1C262.4,131.1,261.6,131.3,260.8,131.3z M260.7,120.8c-0.9,0-1.7,0.3-2.3,1
			c-0.6,0.7-1,1.5-1.1,2.6l0,0.1h6.3v-0.3c0-1-0.3-1.8-0.8-2.4C262.4,121.1,261.6,120.8,260.7,120.8z"/>
		<path class="st7" d="M272.4,121l-0.9-0.1c-0.8,0-1.4,0.2-1.9,0.6c-0.5,0.4-0.8,1-1.1,1.8v7.6h-1.2V120h1.1l0.2,1.8v0.1
			c0.3-0.7,0.8-1.2,1.3-1.6c0.5-0.4,1.2-0.6,1.9-0.6c0.1,0,0.3,0,0.4,0c0.1,0,0.2,0,0.3,0.1L272.4,121z"/>
		<path class="st7" d="M279.5,121l-0.9-0.1c-0.8,0-1.4,0.2-1.9,0.6s-0.8,1-1.1,1.8v7.6h-1.2V120h1.1l0.2,1.8v0.1
			c0.3-0.7,0.8-1.2,1.3-1.6c0.5-0.4,1.2-0.6,1.9-0.6c0.2,0,0.3,0,0.4,0c0.1,0,0.2,0,0.3,0.1L279.5,121z"/>
		<path class="st7" d="M283,116.8h-1.2v-1.7h1.2V116.8z M283,131.1h-1.2V120h1.2V131.1z"/>
		<path class="st7" d="M288.3,117.2v2.8h2.4v1h-2.4v7.2c0,0.7,0.1,1.2,0.4,1.5c0.3,0.3,0.6,0.5,1,0.5c0.1,0,0.3,0,0.4,0
			c0.1,0,0.3,0,0.5-0.1l0.2,0.9c-0.2,0.1-0.4,0.1-0.6,0.2c-0.2,0.1-0.5,0.1-0.7,0.1c-0.8,0-1.4-0.2-1.8-0.7
			c-0.4-0.5-0.6-1.3-0.6-2.3V121h-1.9v-1h1.9v-2.8H288.3z"/>
		<path class="st7" d="M292.4,125.4c0-1.6,0.4-3,1.3-4c0.9-1,2.1-1.6,3.5-1.6c1.5,0,2.7,0.5,3.6,1.6s1.3,2.4,1.3,4v0.3
			c0,1.6-0.4,3-1.3,4c-0.9,1-2.1,1.6-3.5,1.6c-1.5,0-2.7-0.5-3.6-1.6c-0.9-1-1.3-2.4-1.3-4V125.4z M293.7,125.7c0,1.3,0.3,2.4,1,3.2
			c0.6,0.9,1.6,1.3,2.7,1.3c1.1,0,2-0.4,2.7-1.3c0.7-0.9,1-1.9,1-3.2v-0.3c0-1.3-0.3-2.3-1-3.2c-0.7-0.9-1.6-1.3-2.7-1.3
			c-1.1,0-2,0.4-2.7,1.3c-0.6,0.9-1,1.9-1,3.2V125.7z"/>
		<path class="st7" d="M309.8,121L309,121c-0.8,0-1.4,0.2-1.9,0.6s-0.8,1-1.1,1.8v7.6h-1.2V120h1.1l0.2,1.8v0.1
			c0.3-0.7,0.8-1.2,1.3-1.6c0.5-0.4,1.2-0.6,1.9-0.6c0.2,0,0.3,0,0.4,0c0.1,0,0.2,0,0.3,0.1L309.8,121z"/>
		<path class="st7" d="M313.3,116.8h-1.2v-1.7h1.2V116.8z M313.3,131.1h-1.2V120h1.2V131.1z"/>
		<path class="st7" d="M323.7,131.1c-0.1-0.4-0.1-0.7-0.2-1s-0.1-0.6-0.1-0.9c-0.4,0.6-0.9,1.1-1.6,1.5c-0.7,0.4-1.5,0.6-2.4,0.6
			c-1.1,0-1.9-0.3-2.5-0.9c-0.6-0.6-0.9-1.4-0.9-2.3s0.4-1.8,1.3-2.4c0.9-0.6,2-0.9,3.4-0.9h2.7v-1.4c0-0.8-0.3-1.4-0.8-1.9
			s-1.2-0.7-2.1-0.7c-0.8,0-1.5,0.2-2,0.6c-0.5,0.4-0.8,0.9-0.8,1.5h-1.1l0-0.1c0-0.8,0.3-1.6,1.1-2.2c0.8-0.6,1.7-0.9,3-0.9
			s2.2,0.3,2.9,0.9s1.1,1.5,1.1,2.7v5.4c0,0.4,0,0.8,0.1,1.1s0.1,0.7,0.2,1.1H323.7z M319.6,130.2c0.9,0,1.8-0.2,2.4-0.7
			c0.7-0.4,1.2-1,1.4-1.7v-2.1h-2.7c-1,0-1.8,0.2-2.5,0.7c-0.6,0.5-1,1-1,1.7c0,0.6,0.2,1.1,0.6,1.5S318.9,130.2,319.6,130.2z"/>
		<path class="st7" d="M329.3,131.1h-1.2v-16h1.2V131.1z"/>
	</g>
	<g>
		<path class="st7" d="M94,50c0-2.7,2.2-4.9,4.9-4.9c2.7,0,4.9,2.2,4.9,4.9s-2.2,4.9-4.9,4.9C96.1,54.9,94,52.6,94,50z"/>
		<path class="st7" d="M87.8,52.7c0,0-9.7-0.5-15.4,0.7c-5.4,1-6.5,5.9-6.5,10.1c0,4.1,0,4.5,0,4.5h19c0,4.1,0,4.9,0,5.2
			c0,2.2-1.7,2.9-3.2,2.9c-1.1,0-1.7,0-15.8,0v23.6h-9.8c0-35.5,0-33.3,0-36.5c0-7.7,4.1-15.3,11.2-17.1C76.1,44,88,45.2,88,45.2
			L87.8,52.7z"/>
		<path class="st7" d="M176.4,100.8c-4.3,0.4-10.2-0.6-12.3-1.7c-2.2-1-3.9-2.4-5.4-4.2c-1.5-1.7-2.6-3.9-3.4-6.4
			c-0.7-2.5-1.2-5.2-1.2-8c0-2.6,0.4-5.1,1.2-7.4c0.8-2.4,2.1-4.5,3.7-6.3c1.7-1.8,3.6-3.3,5.9-4.4s4.9-1.7,7.9-1.7
			c1.8,0,3.4,0.2,4.7,0.6c1.2,0.4,2.3,0.9,3.2,1.6V48c0,0,6.2-1.8,8-2.4c1.4-0.4,1.2,1.2,1.2,2c0,0.7,0,42.3,0,42.3
			c0,1-0.2,4.1-0.2,6.3C190.1,98.7,178.6,100.6,176.4,100.8z M173.1,93.7c3.2,0.3,6.5-0.4,7.9-1.2V69.2c-1-0.4-2.1-0.8-3.2-1.1
			c-1.1-0.2-2.3-0.4-3.6-0.4c-1.7,0-3.1,0.3-4.3,1s-2.3,1.6-3.2,2.7c-0.8,1.2-1.5,2.5-2,4c-0.4,1.5-0.7,3.1-0.7,4.8
			c0,1.7,0.2,3.4,0.6,5c0.3,1.6,0.9,3.1,1.7,4.3c0.7,1.2,1.7,2.2,2.8,3C170.2,93.2,171.5,93.5,173.1,93.7z"/>
		<path class="st7" d="M230.7,93.2c-1.5,2.6-3.6,4.9-7.2,6.3c-1.3,0.5-2.7,0.8-4.2,1c-1.4,0.2-2.9,0.2-4.4,0.2
			c-3.3,0-6.1-0.6-8.5-1.7c-2.3-1.2-4.2-2.7-5.7-4.6s-2.6-4.1-3.3-6.6s-1.1-5.1-1.1-7.7s0.3-5.1,1.1-7.4c0.7-2.3,1.8-4.4,3.3-6.2
			s3.3-3.2,5.7-4.3c2.2-1.1,4.9-1.6,8-1.6c2.7,0,5.1,0.3,7.2,1.1c2.1,0.7,3.7,1.8,5.2,3.2c1.3,1.4,2.4,3.1,3.1,5c0.7,2,1,4.2,1,6.6
			c0,0.9,0,2.7-0.2,3.7c-0.2,1.7-0.5,2.2-2.2,2.2c-2,0-22.2,0-22.2,0c0,1.1,0.2,2.3,0.6,3.7c0.4,1.3,1,2.6,1.7,3.7
			c0.7,1.2,1.7,2.2,2.9,2.9c1.2,0.7,2.5,1.2,3.9,1.2c1.2,0,2.4-0.1,3.4-0.2c1-0.2,1.8-0.5,2.7-0.9c3.1-1.5,3.1-2.9,5-2.5
			C228.5,90.9,230.7,93.2,230.7,93.2z M213.8,67.7c-1.5,0-2.7,0.2-3.7,0.7s-1.7,1.2-2.3,2.1s-1,1.8-1.2,2.9s-0.3,2.2-0.3,3.4H221
			c0-1-0.1-2.1-0.2-3.2c-0.2-1.1-0.5-2.1-1-3s-1.2-1.7-2.2-2.2C216.7,67.9,215.4,67.7,213.8,67.7z"/>
		<path class="st7" d="M296.5,93.2c-1.5,2.6-3.6,4.9-7.2,6.3c-1.3,0.5-2.7,0.8-4.2,1c-1.4,0.2-2.9,0.2-4.4,0.2
			c-3.3,0-6.1-0.6-8.5-1.7c-2.3-1.2-4.2-2.7-5.7-4.6s-2.6-4.1-3.3-6.6c-0.7-2.5-1.1-5.1-1.1-7.7s0.3-5.1,1.1-7.4
			c0.7-2.3,1.8-4.4,3.3-6.2c1.5-1.8,3.3-3.2,5.7-4.3c2.2-1.1,4.9-1.6,8-1.6c2.7,0,5.1,0.3,7.2,1.1c2.1,0.7,3.7,1.8,5.2,3.2
			c1.4,1.4,2.4,3.1,3.1,5c0.7,2,1,4.2,1,6.6c0,0.9,0,2.7-0.2,3.7c-0.2,1.7-0.5,2.2-2.2,2.2c-2,0-22.2,0-22.2,0
			c0,1.1,0.2,2.3,0.6,3.7c0.4,1.3,1,2.6,1.7,3.7c0.7,1.2,1.7,2.2,2.9,2.9c1.2,0.7,2.5,1.2,3.9,1.2c1.2,0,2.4-0.1,3.4-0.2
			s1.8-0.5,2.7-0.9c3.1-1.5,3.1-2.9,5-2.5C294.3,90.9,296.5,93.2,296.5,93.2z M279.7,67.7c-1.5,0-2.7,0.2-3.7,0.7s-1.7,1.2-2.3,2.1
			c-0.6,0.8-1,1.8-1.2,2.9s-0.3,2.2-0.3,3.4H287c0-1-0.1-2.1-0.2-3.2c-0.2-1.1-0.5-2.1-1-3s-1.2-1.7-2.2-2.2
			C282.6,67.9,281.3,67.7,279.7,67.7z"/>
		<path class="st7" d="M94.5,61.2c0,0,4,0,6.3,0c2.7,0,2.7,3.1,2.7,3.1V100h-9V61.2z"/>
		<path class="st7" d="M130.3,61c1.1-0.3,2.3-0.4,3.5-0.4c2,0,3.9,0.3,5.6,0.9c1.7,0.6,3.2,1.5,4.5,2.7c1.2,1.2,2.2,2.6,3,4.3
			c0.7,1.7,1.1,3.6,1.1,5.7v25.6h-9.3V76.1c0-1.6-0.2-2.8-0.5-3.9s-0.7-1.9-1.4-2.6c-0.6-0.7-1.3-1.2-2.2-1.4
			c-0.9-0.3-1.9-0.4-3.1-0.4c-0.7,0-1.4,0.1-2.2,0.2c-0.7,0.1-1.6,0.2-2.3,0.5c-0.8,0.2-1.6,0.5-2.3,0.7c-0.7,0.2-1.5,0.6-2.2,1
			v29.9h-9.1V67.9v-6.7h6.4c1.5,0,2.3,1,2.5,1.5c0.1,0.4,0.2,1.1,0.2,1.7c0.1,0.3,0,0.5,0.1,0.7C122.5,65.3,126.4,62.1,130.3,61z"/>
		<path class="st7" d="M327.6,69.4c-1-0.6-2.2-1-3.1-1.3s-1.9-0.4-3.1-0.4c-0.7,0-1.4,0.1-2.2,0.2c-0.7,0.1-1.6,0.2-2.3,0.5
			c-0.8,0.2-1.6,0.5-2.3,0.7c-0.7,0.2-1.5,0.6-2.2,1V100h-9.3V67.9v-6.7h6.4c1.5,0,2.3,1.2,2.5,1.7c0.1,0.3,0.1,0.7,0.2,1.4
			c0,0.1,0.1,0.7,0.1,1.1c0,0,3.9-3.2,7.9-4.4c1.1-0.3,2.3-0.4,3.5-0.4c2,0,4.2,0.6,6,1.2L327.6,69.4z"/>
		<path class="st7" d="M257.8,93.2c-1-0.3-2.2-0.2-3.2,0s-1.8,0.2-2.6,0.2c-0.6,0-1-0.1-1.5-0.2c-0.4-0.2-0.7-0.5-1.1-1
			c-0.2-0.4-0.5-1.1-0.7-1.8c-0.2-0.7-0.2-1.7-0.2-2.7V68.4h8.7l0.8-7.2h-9.5c0,0,0-13.4,0-14.4c0-1.4,0.1-2.3-1.7-1.7
			c-2.6,0.9-7.7,2.5-7.7,2.5v13.7h-4.7v7.2h4.7v20.1c0,1.8,0.2,3.5,0.5,5s0.9,2.7,1.7,3.7s1.9,1.8,3.3,2.4c1.4,0.6,3.2,0.8,5.3,0.8
			c1.6,0,3.2-0.3,4.8-1c1.7-0.7,3.3-1.7,5.1-2.9C259.9,96.8,258.7,93.6,257.8,93.2z"/>
	</g>
</g>
</svg>
